<svg xmlns="http://www.w3.org/2000/svg" xmlns:xlink="http://www.w3.org/1999/xlink" width="71.587" height="71.587"><defs><path id="a" d="M0 0h71.587v71.587H0z"/></defs><clipPath id="b"><use xlink:href="#a" overflow="visible"/></clipPath><path clip-path="url(#b)" fill="#FFF" stroke="#FFF" d="M36.402 49.193c-.646 0-2.827-.053-3.766-.731l-.014-.011-6.428-3.374 4.176-1.412 3.419 1.981c.061.029 1.036.483 2.471.483 1.594 0 3.918-.574 6.035-3.281l2.583 1.597c-.446.896-2.644 4.656-8.264 4.748-.005-.002-.08 0-.212 0m3.027-20.877c-.053-.029-1.198-.677-2.822-.677-1.51 0-3.702.584-5.653 3.336l-2.639-1.621c.452-.88 2.71-4.63 8.348-4.63h.051c.29 0 2.884.022 3.915.796l.014.01 7.491 4.088-4.186 1.416-4.519-2.718z"/><g><defs><path id="c" d="M0 0h71.587v71.587H0z"/></defs><clipPath id="d"><use xlink:href="#c" overflow="visible"/></clipPath><path clip-path="url(#d)" fill="#FFF" stroke="#FFF" d="M14.377 48.732V33.727l5.21 2.788v9.583l16.336 9.977 13.675-8.412-35.221-21.767v-2.471l21.547-12.909 21.41 13.022v15.561l-4.554-3.202v-9.455l-16.857-9.984-14.429 8.388 7.896 4.851 27.942 17.168v2.25l-21.478 12.91-21.477-13.293z"/></g></svg>