<svg xmlns="http://www.w3.org/2000/svg" width="143.141" height="24.6"><path fill="#FED700" d="M72.635 17.732l-6.482 3.262 1.25-6.957-5.231-4.901 7.201-1.005 3.269-6.34 3.266 6.34 7.207 1.005-5.238 4.901 1.248 6.957"/><path fill="#C9872A" d="M72.635 2.847l2.689 5.282.244.427.477.054 6.003.814-4.326 4.033-.377.338.093.525 1.006 5.76-5.421-2.738-.433-.238-.43.238-5.426 2.738 1.005-5.76.096-.525-.382-.338-4.324-4.032 5.956-.814.479-.054.242-.427 2.829-5.283m0-2.112l-3.553 6.96L61.108 8.8l5.764 5.424-1.349 7.635 7.107-3.6 7.105 3.6-1.34-7.635 5.76-5.424-7.966-1.105-3.554-6.96z"/><path fill="#FED700" d="M97.603 17.732l-6.48 3.262 1.249-6.957-5.233-4.901 7.203-1.005 3.267-6.34 3.262 6.34 7.206 1.005-5.235 4.901 1.253 6.957"/><path fill="#C9872A" d="M97.603 2.847l2.687 5.282.243.427.481.054 6.004.814-4.322 4.033-.388.338.1.525 1.009 5.76-5.424-2.738-.433-.238-.434.238-5.426 2.739 1.01-5.76.095-.525-.383-.338-4.326-4.033 5.959-.814.477-.054.244-.427 2.827-5.283m0-2.112l-3.561 6.96L86.07 8.8l5.766 5.424-1.343 7.635 7.104-3.6 7.103 3.6-1.339-7.635 5.765-5.424-7.973-1.105-3.55-6.96z"/><path fill="#FED700" d="M122.568 17.732l-6.48 3.262 1.244-6.957-5.229-4.901 7.206-1.005 3.263-6.34 3.264 6.34 7.205 1.005-5.232 4.901 1.248 6.957"/><path fill="#C9872A" d="M122.568 2.847l2.685 5.282.243.427.479.054 6.008.814-4.322 4.033-.388.338.099.525 1.007 5.76-5.422-2.738-.433-.238-.433.238-5.431 2.738 1.016-5.76.089-.525-.377-.338-4.326-4.033 5.957-.814.479-.054.243-.427 2.827-5.282m0-2.112l-3.552 6.96-7.974 1.105 5.762 5.424-1.346 7.635 7.105-3.6 7.107 3.6-1.345-7.635L134.09 8.8l-7.972-1.105-3.55-6.96z"/><path fill="#FED700" d="M22.702 17.732l-6.482 3.262 1.249-6.957-5.231-4.901L19.44 8.13l3.267-6.339 3.268 6.339 7.203 1.005-5.232 4.901 1.249 6.957"/><path fill="#C9872A" d="M22.702 2.847l2.69 5.282.239.427.48.054 6.004.814-4.324 4.033-.383.338.096.527 1.01 5.76-5.426-2.74-.383-.189-.436.244-5.43 2.73 1.01-5.76.099-.531-.38-.336-4.325-4.026 5.956-.818.482-.044.239-.435 2.782-5.33m0-2.112l-3.553 6.96-7.97 1.105 5.763 5.424-1.346 7.635 7.105-3.6 7.107 3.6-1.344-7.635L34.229 8.8 26.26 7.695 22.702.735z"/><g><path fill="#FED700" d="M47.672 17.732l-6.485 3.262 1.251-6.957-5.231-4.901 7.203-1.005 3.265-6.339 3.27 6.339 7.204 1.005-5.233 4.901 1.249 6.957"/><path fill="#C9872A" d="M47.672 2.847l2.691 5.282.237.428.482.054 5.999.814-4.32 4.033-.388.334.098.525 1.005 5.764-5.426-2.742-.382-.189-.435.236-5.427 2.74 1.01-5.76.097-.531-.38-.336-4.326-4.035 5.955-.813.479-.048.242-.434 2.789-5.322m0-2.112l-3.552 6.96L36.149 8.8l5.765 5.424-1.348 7.635 7.106-3.6 7.106 3.6-1.347-7.635L59.194 8.8l-7.967-1.105-3.555-6.96z"/></g></svg>